<svg xmlns="http://www.w3.org/2000/svg" width="50" height="50" viewBox="0 0 24 24"><title>Amex</title><g fill="none" fill-rule="evenodd"><rect width="24" height="24"/><g fill-rule="nonzero" transform="translate(2.5 6)"><rect width="19" height="12" fill="#006FCF" rx="1"/><path fill="#FFF" d="M11.0597409,6.33826585 L12.4361021,7.83005039 L13.825841,6.33826585 L15.5,6.33826585 L13.2495584,8.65580681 L15.5,11 L13.7988027,11 L12.4089225,9.49493561 L11.0123533,11 L9.35811973,11 L11.5953248,8.66913292 L9.35811973,6.33826585 L11.0597409,6.33826585 Z M9.35802552,6.33826585 L9.35802552,7.41717218 L6.61236899,7.41717218 L6.61236899,8.14298274 L9.29024141,8.14298274 L9.29024141,9.19519057 L6.61236899,9.19519057 L6.61236899,9.92113994 L9.35802552,9.92113994 L9.35802552,11 L5.3174053,11 L5.3174053,6.33826585 L9.35802552,6.33826585 Z M15.5,7.30723173 L15.5,10.0196977 L14.1967929,8.65779647 L15.5,7.30723173 Z M11.3847184,1 L12.4422728,3.90356612 L13.5067517,1 L15.5,1 L15.5,5.66178042 L14.2186026,5.66178042 L14.2186026,2.39183868 L12.9982061,5.66178042 L11.8593013,5.66178042 L10.6389048,2.39854801 L10.6389048,5.66178042 L9.35764868,5.66178042 L9.35764868,1 L11.3847184,1 Z M7.262842,1 L9.35764868,5.66178042 L7.9000314,5.66178042 L7.5000157,4.72950763 L5.31702846,4.72950763 L4.92374877,5.66178042 L3.5,5.66178042 L5.59499509,1 L7.262842,1 Z M6.40854563,2.15886302 L5.7644318,3.68387031 L7.05261237,3.68387031 L6.40854563,2.15886302 Z"/></g></g></svg>