<svg xmlns="http://www.w3.org/2000/svg" fill="none" viewBox="0 0 24 24"><path fill="#fff" d="M1 6a1 1 0 0 1 1-1h20a1 1 0 0 1 1 1v12a1 1 0 0 1-1 1H2a1 1 0 0 1-1-1z"/><path fill="#C8C8CA" fill-rule="evenodd" d="M22 5.542H2A.458.458 0 0 0 1.542 6v12c0 .253.205.458.458.458h20a.458.458 0 0 0 .458-.458V6A.458.458 0 0 0 22 5.542M2 5a1 1 0 0 0-1 1v12a1 1 0 0 0 1 1h20a1 1 0 0 0 1-1V6a1 1 0 0 0-1-1z" clip-rule="evenodd"/><path fill="#004E91" fill-rule="evenodd" d="M5.987 15.533a.49.49 0 0 1 .071.27v.044a.699.699 0 0 1-.071.333.58.58 0 0 1-.197.207.786.786 0 0 1-.286.107 2.044 2.044 0 0 1-.351.031h-.15a.82.82 0 0 1-.07-.003l-.072-.003a1.11 1.11 0 0 0-.066-.006.817.817 0 0 1-.065-.007.498.498 0 0 1-.101-.012.242.242 0 0 1-.12-.057c-.023-.031-.035-.075-.035-.144V14.46c0-.07.012-.12.035-.145.024-.031.066-.044.12-.056.013-.004.029-.005.047-.007l.048-.006c.042-.006.083-.012.13-.012a.822.822 0 0 0 .072-.004l.072-.003h.143c.137 0 .256.013.37.032a.866.866 0 0 1 .285.106c.077.05.143.113.185.195a.656.656 0 0 1 .065.301v.057a.574.574 0 0 1-.065.264.412.412 0 0 1-.179.175c.077.038.137.1.185.176m9.358.678v.233c0 .031-.018.05-.042.05-.042.006-.084.012-.113.019a1.039 1.039 0 0 1-.322-.012.285.285 0 0 1-.149-.076.424.424 0 0 1-.09-.157 1.066 1.066 0 0 1-.029-.264v-.879l-.232-.037a.097.097 0 0 1-.042-.026c-.012-.006-.018-.018-.018-.037v-.201c0-.02.006-.032.018-.044a.053.053 0 0 1 .042-.019h.232v-.245c0-.012.006-.025.018-.038.012-.006.024-.012.042-.018l.345-.063h.006c.012 0 .024.006.036.012.006.007.012.02.012.038v.32h.232c.018 0 .03.007.042.02a.059.059 0 0 1 .018.043v.245a.059.059 0 0 1-.018.044.053.053 0 0 1-.042.019h-.232v.879c0 .063 0 .1.012.119.006.019.035.025.077.025h.137c.042 0 .06.019.06.05m4.181.233v-.233c0-.031-.018-.05-.06-.05h-.142c-.042 0-.072-.006-.078-.025-.012-.019-.012-.056-.012-.12v-.878h.233a.05.05 0 0 0 .041-.02.059.059 0 0 0 .018-.043v-.245a.059.059 0 0 0-.018-.044.053.053 0 0 0-.041-.019h-.233v-.32a.057.057 0 0 0-.012-.038.082.082 0 0 0-.035-.012h-.006l-.346.063a.235.235 0 0 0-.041.018c-.012.013-.018.026-.018.038v.245h-.233a.053.053 0 0 0-.041.019.059.059 0 0 0-.018.044v.2c0 .02.006.032.018.038a.095.095 0 0 0 .041.026l.233.037v.88c0 .106.012.194.03.263.023.069.053.12.089.157a.31.31 0 0 0 .149.075c.06.013.13.019.208.019.042 0 .078 0 .113-.006.03-.007.072-.013.114-.02.03 0 .047-.018.047-.05m-1.239-.032v-.27c0-.019-.006-.031-.018-.037a.081.081 0 0 0-.035-.013h-.006c-.054.006-.108.013-.155.013-.048.006-.113.006-.197.006a.224.224 0 0 1-.167-.075.246.246 0 0 1-.047-.107.665.665 0 0 1-.018-.17v-.25a.66.66 0 0 1 .018-.17.346.346 0 0 1 .047-.107.226.226 0 0 1 .167-.075 1.701 1.701 0 0 1 .274.012l.078.006h.006c.017 0 .03-.006.035-.012.012-.007.018-.019.018-.038v-.27c0-.025-.006-.037-.012-.044l-.01-.007c-.01-.006-.02-.014-.037-.018a.894.894 0 0 0-.101-.021l-.054-.01c-.066-.013-.137-.013-.227-.013a.637.637 0 0 0-.488.195c-.12.132-.185.32-.185.571v.251c0 .245.06.44.185.572.12.131.286.194.488.194.084 0 .161-.006.227-.012.02-.004.04-.008.058-.01a.62.62 0 0 0 .097-.022.089.089 0 0 0 .047-.025c.012-.006.012-.025.012-.044m-1.977-.276a.612.612 0 0 0 .113-.044v-.333h-.161a.607.607 0 0 0-.125.013.235.235 0 0 0-.078.044.162.162 0 0 0-.041.069.396.396 0 0 0-.012.094v.025c0 .07.012.107.041.126a.27.27 0 0 0 .137.025.43.43 0 0 0 .126-.019m.566-.779a.77.77 0 0 0-.048-.282.478.478 0 0 0-.34-.295.98.98 0 0 0-.28-.038 2.026 2.026 0 0 0-.494.063c-.036.013-.054.031-.054.069v.245c0 .019.006.031.012.044a.085.085 0 0 0 .036.012h.012a.344.344 0 0 0 .037-.003.41.41 0 0 1 .046-.003.453.453 0 0 0 .052-.003.608.608 0 0 1 .061-.003l.064-.003a.893.893 0 0 1 .073-.004h.137a.27.27 0 0 1 .155.038c.036.025.06.082.06.17v.106h-.155c-.244 0-.429.038-.536.12-.113.081-.167.213-.167.389v.025c0 .1.012.182.042.245.03.07.065.12.113.163a.481.481 0 0 0 .34.113c.083 0 .16-.012.22-.037a.855.855 0 0 0 .179-.1v.05c0 .018.006.03.018.043a.053.053 0 0 0 .041.02h.322c.018 0 .03-.007.042-.02a.058.058 0 0 0 .017-.044v-1.08zm-2.782 1.08v-1.004a1.33 1.33 0 0 0-.024-.27.634.634 0 0 0-.078-.22.353.353 0 0 0-.154-.144.505.505 0 0 0-.256-.057.744.744 0 0 0-.245.038.822.822 0 0 0-.226.125v-.075a.059.059 0 0 0-.018-.044.053.053 0 0 0-.042-.019h-.321a.053.053 0 0 0-.042.02.058.058 0 0 0-.018.043v1.607c0 .02.006.032.018.044a.053.053 0 0 0 .042.02h.345c.018 0 .03-.007.042-.02a.058.058 0 0 0 .018-.044V15.25c.047-.025.095-.05.143-.07a.325.325 0 0 1 .13-.024c.042 0 .078.006.108.012s.048.025.066.044a.19.19 0 0 1 .03.088.883.883 0 0 1 .005.132v1.004c0 .02.006.032.018.044a.053.053 0 0 0 .042.02h.345c.018 0 .03-.007.042-.02.024-.012.03-.031.03-.044m-2.425-.326c.173 0 .256-.126.256-.37v-.214c0-.245-.089-.37-.256-.37a.215.215 0 0 0-.19.094.49.49 0 0 0-.066.276v.213c0 .12.024.214.066.277a.215.215 0 0 0 .19.094m.721-.584c0-.12-.018-.232-.048-.326a.694.694 0 0 0-.136-.245.599.599 0 0 0-.227-.157.785.785 0 0 0-.31-.057.783.783 0 0 0-.31.057.6.6 0 0 0-.226.157.694.694 0 0 0-.137.245c-.03.094-.047.207-.047.326v.213c0 .12.018.233.047.327.03.094.078.176.137.245a.6.6 0 0 0 .227.157c.089.037.19.056.31.056.119 0 .22-.019.31-.056a.6.6 0 0 0 .226-.157.69.69 0 0 0 .136-.245c.03-.094.048-.207.048-.327zm-1.596.615v.27c0 .02 0 .038-.012.044-.012.013-.024.019-.048.025a.89.89 0 0 1-.1.022l-.055.01a2.348 2.348 0 0 1-.226.012c-.203 0-.37-.062-.489-.194-.125-.132-.184-.327-.184-.572v-.25c0-.252.065-.44.184-.572a.637.637 0 0 1 .489-.195c.09 0 .16 0 .226.013l.054.01a.89.89 0 0 1 .101.021.11.11 0 0 1 .037.018l.01.007c.007.007.013.019.013.044v.27c0 .019-.006.031-.018.038-.012.006-.024.012-.042.012h-.006a1.31 1.31 0 0 0-.077-.006 1.127 1.127 0 0 1-.078-.006c-.047-.007-.113-.007-.196-.007a.228.228 0 0 0-.167.076.346.346 0 0 0-.048.107.665.665 0 0 0-.018.17v.25c0 .07.006.126.018.17a.246.246 0 0 0 .048.106.224.224 0 0 0 .167.076c.047 0 .089-.002.125-.004l.071-.002c.048 0 .102-.007.155-.013h.006c.018 0 .03.006.042.013.012.006.018.018.018.037m-1.406.295v-1.004a1.33 1.33 0 0 0-.024-.27.634.634 0 0 0-.077-.22.353.353 0 0 0-.155-.144.505.505 0 0 0-.256-.057.743.743 0 0 0-.245.038.821.821 0 0 0-.226.125v-.075a.059.059 0 0 0-.018-.044.053.053 0 0 0-.042-.019h-.321a.053.053 0 0 0-.042.02.059.059 0 0 0-.018.043v1.607c0 .02.006.032.018.044a.053.053 0 0 0 .042.02h.345c.018 0 .03-.007.042-.02a.058.058 0 0 0 .018-.044V15.25c.048-.025.095-.05.143-.07a.325.325 0 0 1 .13-.024c.043 0 .078.006.108.012s.048.025.066.044a.19.19 0 0 1 .03.088.888.888 0 0 1 .005.132v1.004c0 .02.006.032.018.044a.053.053 0 0 0 .042.02h.345c.018 0 .03-.007.042-.02.018-.012.03-.031.03-.044m-2.33-.301a.613.613 0 0 0 .114-.044v-.333h-.16a.607.607 0 0 0-.126.013.236.236 0 0 0-.077.044.163.163 0 0 0-.042.069.399.399 0 0 0-.012.094v.025c0 .07.012.107.042.126a.27.27 0 0 0 .137.025.43.43 0 0 0 .125-.019m.573-.779a.77.77 0 0 0-.048-.282.478.478 0 0 0-.34-.295.98.98 0 0 0-.28-.038 2.025 2.025 0 0 0-.494.063c-.036.013-.053.031-.053.069v.245c0 .019.005.031.011.044a.082.082 0 0 0 .036.012h.012a.345.345 0 0 0 .037-.003.408.408 0 0 1 .046-.003l.051-.003a.793.793 0 0 1 .069-.003l.064-.003a.846.846 0 0 1 .073-.004h.137a.27.27 0 0 1 .154.038c.036.025.06.082.06.17v.106h-.155c-.244 0-.429.038-.536.12-.107.081-.167.213-.167.389v.025c0 .1.012.182.042.245.03.07.066.12.113.163a.481.481 0 0 0 .34.113c.083 0 .16-.012.22-.037a.853.853 0 0 0 .179-.1v.05c0 .018.006.03.018.043a.053.053 0 0 0 .041.02h.322c.018 0 .03-.007.042-.02a.058.058 0 0 0 .018-.044v-1.08zm-2.133.672a.245.245 0 0 0 .084-.194v-.032a.313.313 0 0 0-.066-.188c-.042-.057-.125-.082-.238-.082h-.322v.565h.238c.143 0 .25-.025.304-.069m.072-1.092a.504.504 0 0 1-.012.094.16.16 0 0 1-.048.075.31.31 0 0 1-.09.05.441.441 0 0 1-.142.02h-.322v-.522h.22c.15 0 .25.02.31.057.06.037.09.1.09.182v.044z" clip-rule="evenodd"/><path fill="#004E91" d="M17.867 8.938h-4.635l-.473.528-1.53 1.704-.474.527H6.18l.463-.533.219-.252.462-.533H5.22a.708.708 0 0 0-.699.71v1.499c0 .392.314.708.7.708h8.071c.385 0 .912-.24 1.167-.527l1.221-1.37z"/><path fill="#FD0" d="M18.798 7.34c.385 0 .699.321.699.708v1.5a.704.704 0 0 1-.7.708h-2.104l.469-.527.23-.263.47-.528h-4.635l-2.471 2.753H6.15l3.3-3.69.125-.14c.261-.287.788-.528 1.174-.528h8.048z"/></svg>