<svg xmlns="http://www.w3.org/2000/svg" width="50" height="50" viewBox="0 0 24 24"><defs><linearGradient x1="4.2861664%" y1="24.8743442%" x2="97.6915531%" y2="75.1256558%" id="linearGradient-1"><stop stop-color="#A61009" offset="0%"/><stop stop-color="#D9081F" offset="100%"/></linearGradient><linearGradient x1="4.2861664%" y1="24.8482543%" x2="97.6915531%" y2="75.1517457%" id="linearGradient-2"><stop stop-color="#A61009" offset="0%"/><stop stop-color="#D9081F" offset="100%"/></linearGradient></defs><g id="Delivery/ic_Bpost" stroke="none" stroke-width="1" fill="none" fill-rule="evenodd"><rect x="0" y="0" width="24" height="24"/><g id="Bpost" transform="translate(12.000000, 12.068966) scale(-1, 1) rotate(-180.000000) translate(-12.000000, -12.068966) translate(1.000000, 6.000000)" fill-rule="nonzero"><path d="M14.0796265,11.5769973 L12.2400679,11.0179396 L12.0327674,10.6145925 C11.349236,9.27885733 10.3949066,7.98439482 9.22393888,6.8099984 C7.68692699,5.26602356 5.99864177,4.15916431 4.5942275,3.77082556 C4.17775891,3.65638757 3.99847199,3.63012311 3.59320883,3.63012311 C3.26078098,3.63012311 3.20101868,3.63575121 3.0516129,3.6751479 C2.86485569,3.72392475 2.62393888,3.82898257 2.49134126,3.92090817 C2.18879457,4.12914779 1.96468591,4.49122209 1.86383701,4.93208975 C1.80967742,5.16846986 1.79660441,5.67499867 1.83582343,5.98454405 C1.90679117,6.52671748 2.08794567,7.14580824 2.36434635,7.79116346 C2.42224109,7.92248574 2.46519525,8.03317167 2.4614601,8.03692373 C2.45772496,8.0406758 2.12903226,7.94499813 1.73123939,7.82493205 L1.00662139,7.60731226 L0.875891341,7.30339498 C-0.614431239,3.86837926 -0.175551783,1.34323935 1.98709677,0.902371689 C3.47741935,0.598454405 5.66061121,1.30947077 7.94465195,2.84218942 C11.1213922,4.9752385 14.1113752,8.36335341 15.7417657,11.6820551 C15.9397284,12.0816501 15.9640068,12.1398071 15.9341256,12.136055 C15.9247878,12.134179 15.0918506,11.8827906 14.0796265,11.5769973 Z" id="Path" fill="url(#linearGradient-1)"/><path d="M5.59151104,8.99932847 C4.22631579,8.58660129 3.10203735,8.23765922 3.09456706,8.22827906 C3.06281834,8.18513031 2.92088285,7.80241966 2.8704584,7.62607259 C2.53989813,6.48356873 2.99185059,5.82132921 3.98353141,5.99392421 C5.32631579,6.23030432 7.17521222,7.8624527 8.03056027,9.56964238 C8.10339559,9.71597293 8.11646859,9.75724564 8.09032258,9.75349358 C8.08098472,9.75349358 6.95857385,9.41393167 5.59151104,8.99932847 Z" id="Path" fill="url(#linearGradient-2)"/><path d="M10.8300509,2.46698289 C10.8300509,1.08434685 10.8319185,0.994297287 10.8636672,0.977412994 C10.9122241,0.95302457 11.1942275,0.885487395 11.3529711,0.861098971 C11.5976231,0.825454352 12.0103565,0.834834515 12.2008489,0.879859298 C12.7387097,1.00930555 13.0337861,1.39014017 13.0337861,1.96045409 C13.0337861,2.530768 12.7387097,2.92661088 12.2213922,3.05042904 C12.0794567,3.08419762 11.7414261,3.09545382 11.5826825,3.07106539 L11.4837012,3.05605713 L11.4837012,3.49880083 L11.4837012,3.9396685 L11.1568761,3.9396685 L10.8300509,3.9396685 L10.8300509,2.46698289 Z M12.0495756,2.58892501 C12.1616299,2.53264403 12.2400679,2.4444705 12.3016978,2.30939615 C12.3390492,2.22685072 12.3502547,2.16681767 12.357725,2.01485903 C12.3726655,1.67342109 12.2699491,1.45767734 12.034635,1.33573522 C11.9543294,1.29258647 11.9169779,1.28695838 11.763837,1.28508234 C11.6667233,1.28508234 11.5640068,1.29071044 11.5341256,1.3000906 L11.4837012,1.31322283 L11.4874363,1.96420615 L11.493039,2.61518947 L11.5397284,2.6283217 C11.5658744,2.63770186 11.6704584,2.64145393 11.7731749,2.63957789 C11.9300509,2.63582583 11.9748727,2.6283217 12.0495756,2.58892501 Z" id="Shape" fill="#575756"/><path d="M21.2417657,3.61886692 C21.1203735,3.5888504 20.9877759,3.55508181 20.9485569,3.54382561 L20.8775891,3.52506529 L20.8775891,3.28305708 L20.8775891,3.03917284 L20.7188455,3.03917284 L20.5601019,3.03917284 L20.5601019,2.83280925 L20.5601019,2.62644566 L20.7169779,2.62644566 L20.8757216,2.62644566 L20.8831919,1.96608218 C20.886927,1.51958642 20.8962649,1.28133028 20.9112054,1.23630549 C20.9691002,1.05995843 21.1147708,0.92488408 21.3052632,0.868603102 C21.4471986,0.827330384 21.7478778,0.827330384 21.8916808,0.870479134 L21.9981324,0.902371689 L21.9981324,1.1331237 L21.9981324,1.36387571 L21.8431239,1.36199968 C21.7385399,1.36012365 21.6694397,1.36950381 21.6358234,1.38826414 C21.5349745,1.44079305 21.5312394,1.46893354 21.5312394,2.07301604 L21.5312394,2.62644566 L21.7646859,2.62644566 L21.9981324,2.62644566 L21.9981324,2.83280925 L21.9981324,3.03917284 L21.7646859,3.03917284 L21.5312394,3.03917284 L21.5312394,3.35809839 C21.5312394,3.65075947 21.5293718,3.67702393 21.4994907,3.6751479 C21.4808149,3.6751479 21.3650255,3.64888344 21.2417657,3.61886692 Z" id="Path" fill="#575756"/><path d="M14.0254669,3.07481746 C13.8573854,3.05605713 13.6818336,3.02041251 13.5249576,2.96975963 L13.4259762,2.93974311 L13.4259762,1.47080957 L13.4259762,0 L13.7528014,0 L14.0796265,0 L14.0796265,0.442743698 L14.0796265,0.885487395 L14.2066214,0.868603102 C14.2757216,0.861098971 14.4157895,0.855470874 14.5185059,0.857346906 C15.0806452,0.870479134 15.4578947,1.14250386 15.5867572,1.63214838 C15.6297114,1.79723925 15.6297114,2.14242925 15.5867572,2.30376805 C15.5344652,2.49887545 15.4634975,2.62644566 15.3308998,2.75776795 C15.1142615,2.97538773 14.8434635,3.07294143 14.4251273,3.08607366 C14.2925297,3.08982572 14.1113752,3.08607366 14.0254669,3.07481746 Z M14.610017,2.60580931 C14.6828523,2.57954485 14.7370119,2.54014816 14.7967742,2.47448702 C14.9162988,2.34128871 14.9480475,2.23435485 14.94618,1.96983425 C14.9443124,1.69405745 14.9032258,1.57399137 14.7631579,1.43141289 C14.6380306,1.3057187 14.5129032,1.26632202 14.2943973,1.28133028 C14.0534805,1.29821457 14.0777589,1.2194212 14.0833616,1.96608218 L14.0889643,2.61518947 L14.1356537,2.6283217 C14.2421053,2.65833822 14.5054329,2.64520599 14.610017,2.60580931 Z" id="Shape" fill="#575756"/><path d="M16.8156197,3.06918936 C16.3935484,2.98664393 16.1190153,2.74838778 15.9901528,2.35442093 C15.9285229,2.16306561 15.9191851,1.82725577 15.9714771,1.63214838 C16.0685908,1.26632202 16.3020374,1.00930555 16.6438031,0.887363428 C16.8249576,0.823578319 17.2152801,0.806694025 17.4132428,0.851718808 C17.7904924,0.941768374 18.05382,1.18002452 18.1826825,1.55147897 C18.2275042,1.68280126 18.233107,1.72407398 18.233107,1.96045409 C18.233107,2.19871023 18.2293718,2.23623088 18.1826825,2.3694292 C18.0594228,2.72587539 17.8147708,2.95287534 17.4505942,3.048553 C17.2937182,3.08982572 16.9762309,3.10108192 16.8156197,3.06918936 Z M17.3049236,2.59830518 C17.4916808,2.50450354 17.5775891,2.29813996 17.5794567,1.94169376 C17.5794567,1.667793 17.5383701,1.53647071 17.4151104,1.41640463 C17.224618,1.2306774 16.8585739,1.25881789 16.7147708,1.46893354 C16.6083192,1.62839631 16.5634975,1.87603262 16.5989813,2.12742099 C16.6475382,2.47073496 16.810017,2.64332996 17.0882852,2.64520599 C17.1816638,2.64520599 17.2320883,2.63394979 17.3049236,2.59830518 Z" id="Shape" fill="#575756"/><path d="M19.2247878,3.07856953 C18.7504244,2.99977616 18.5076401,2.76527208 18.5281834,2.41070191 C18.5487267,2.10866066 18.7280136,1.94732186 19.2173175,1.79348718 C19.4713073,1.71469381 19.6001698,1.63777647 19.6244482,1.55147897 C19.6468591,1.46142941 19.6095076,1.3863881 19.5123939,1.33198316 C19.437691,1.29071044 19.4096774,1.28508234 19.2341256,1.28695838 C19.0436333,1.28883441 18.9857385,1.3000906 18.6906621,1.39952033 C18.6682513,1.40702446 18.6383701,1.36012365 18.5636672,1.20816501 C18.5113752,1.09747908 18.4702886,0.99617332 18.4758913,0.983041092 C18.5020374,0.91737995 18.9801358,0.825454352 19.3032258,0.825454352 C19.9382003,0.825454352 20.2874363,1.04870223 20.3135823,1.46893354 C20.3247878,1.64715664 20.2893039,1.75221446 20.1791171,1.87228055 C20.0857385,1.97358631 19.9475382,2.04675159 19.6431239,2.14993338 C19.2621392,2.2775036 19.1967742,2.32440441 19.1967742,2.45947876 C19.1967742,2.54014816 19.2621392,2.60768534 19.3760611,2.64520599 C19.4806452,2.68085061 19.721562,2.65833822 19.8933786,2.59830518 C19.9736842,2.57016469 20.0427844,2.55140436 20.0465195,2.55515642 C20.057725,2.56828865 20.2426146,2.92098279 20.2426146,2.93036295 C20.2426146,2.94912327 20.0932088,3.00165219 19.9363328,3.03917284 C19.7663837,3.08044556 19.3704584,3.10295795 19.2247878,3.07856953 Z" id="Path" fill="#575756"/></g></g></svg>