<!DOCTYPE svg PUBLIC "-//W3C//DTD SVG 1.1//EN" "http://www.w3.org/Graphics/SVG/1.1/DTD/svg11.dtd">
<!-- Uploaded to: SVG Repo, www.svgrepo.com, Transformed by: SVG Repo Mixer Tools -->
<svg width="800px" height="800px" viewBox="0 0 1024.00 1024.00" class="icon" version="1.1" xmlns="http://www.w3.org/2000/svg" fill="#9c9c9c" stroke="#9c9c9c" stroke-width="34.816">
<g id="SVGRepo_bgCarrier" stroke-width="0"/>
<g id="SVGRepo_tracerCarrier" stroke-linecap="round" stroke-linejoin="round"/>
<g id="SVGRepo_iconCarrier">
<path d="M938.666667 768H640V341.333333c0-23.466667 19.2-42.666667 42.666667-42.666666h170.666666c12.8 0 25.6 6.4 34.133334 17.066666l128 164.266667c6.4 8.533333 8.533333 17.066667 8.533333 25.6V682.666667c0 46.933333-38.4 85.333333-85.333333 85.333333z" fill="#ffffff"/>
<path d="M170.666667 768h469.333333V277.333333c0-46.933333-38.4-85.333333-85.333333-85.333333H85.333333v490.666667c0 46.933333 38.4 85.333333 85.333334 85.333333z" fill="#ffffff"/>
<path d="M0 192h213.333333v42.666667H0zM0 298.666667h213.333333v42.666666H0zM0 405.333333h213.333333v42.666667H0zM0 512h213.333333v42.666667H0z" fill="#ffffff"/>
<path d="M85.333333 234.666667h341.333334v42.666666H85.333333zM85.333333 341.333333h256v42.666667H85.333333zM85.333333 448h170.666667v42.666667H85.333333zM85.333333 554.666667h85.333334v42.666666H85.333333z" fill="#ffffff"/>
<path d="M832 768m-106.666667 0a106.666667 106.666667 0 1 0 213.333334 0 106.666667 106.666667 0 1 0-213.333334 0Z" fill="#ffffff"/>
<path d="M341.333333 768m-106.666666 0a106.666667 106.666667 0 1 0 213.333333 0 106.666667 106.666667 0 1 0-213.333333 0Z" fill="#ffffff"/>
<path d="M832 768m-53.333333 0a53.333333 53.333333 0 1 0 106.666666 0 53.333333 53.333333 0 1 0-106.666666 0Z" fill="#ffffff"/>
<path d="M341.333333 768m-53.333333 0a53.333333 53.333333 0 1 0 106.666667 0 53.333333 53.333333 0 1 0-106.666667 0Z" fill="#ffffff"/>
<path d="M938.666667 554.666667h-76.8c-6.4 0-10.666667-2.133333-14.933334-6.4l-29.866666-29.866667c-4.266667-4.266667-8.533333-6.4-14.933334-6.4H725.333333c-12.8 0-21.333333-8.533333-21.333333-21.333333v-128c0-12.8 8.533333-21.333333 21.333333-21.333334h117.333334c6.4 0 12.8 2.133333 17.066666 8.533334l96 115.2c2.133333 4.266667 4.266667 8.533333 4.266667 12.8V533.333333c0 12.8-8.533333 21.333333-21.333333 21.333334z" fill="#ffffff"/>
</g>
</svg>