<svg xmlns="http://www.w3.org/2000/svg" width="44.454" height="31.451" viewBox="0 0 44.454 31.451">
  <g id="Flèche_bas" transform="translate(2.27 48.591) rotate(-90)">
    <g id="Arrow---Down-2" transform="translate(17.14 -2.27)">
      <path id="Stroke-1" d="M.63.813a1.809,1.809,0,0,1,2.8-.269l.241.269L22.227,24.75,40.782.813a1.809,1.809,0,0,1,2.8-.269l.241.269a3.4,3.4,0,0,1,.208,3.613l-.208.311-20.076,25.9a1.809,1.809,0,0,1-2.8.269l-.241-.269L.63,4.737A3.371,3.371,0,0,1,.63.813Z" transform="translate(31.451 0) rotate(90)" fill="#fff"/>
    </g>
  </g>
</svg>
