<svg xmlns="http://www.w3.org/2000/svg" fill="none" viewBox="0 0 24 24"><path fill="#fff" d="M1 6a1 1 0 0 1 1-1h20a1 1 0 0 1 1 1v12a1 1 0 0 1-1 1H2a1 1 0 0 1-1-1z"/><path fill="#C8C8CA" fill-rule="evenodd" d="M22 5.5H2a.5.5 0 0 0-.5.5v12a.5.5 0 0 0 .5.5h20a.5.5 0 0 0 .5-.5V6a.5.5 0 0 0-.5-.5M2 5a1 1 0 0 0-1 1v12a1 1 0 0 0 1 1h20a1 1 0 0 0 1-1V6a1 1 0 0 0-1-1z" clip-rule="evenodd"/><path fill="#6C6BBD" d="M14.258 14.179h-3.516v-6.32h3.516z"/><path fill="#EB001B" d="M10.967 11.019c0-1.282.6-2.424 1.535-3.16a4.019 4.019 0 1 0 0 6.32 4.012 4.012 0 0 1-1.535-3.16"/><path fill="#0099DF" d="M19 11.019a4.019 4.019 0 0 1-6.502 3.16 4.011 4.011 0 0 0 1.535-3.16c0-1.282-.6-2.424-1.535-3.16A4.019 4.019 0 0 1 19 11.02"/><path fill="#231F20" fill-rule="evenodd" d="M16.292 15.963a.6.6 0 0 1 .413.162.542.542 0 0 1 .165.402.568.568 0 0 1-.165.403.561.561 0 0 1-.183.118.604.604 0 0 1-.23.043.604.604 0 0 1-.23-.043.556.556 0 0 1-.302-.297.566.566 0 0 1-.044-.224.566.566 0 0 1 .164-.402.553.553 0 0 1 .182-.119.6.6 0 0 1 .23-.043m-2.086.24h.38v-.213h-.38v-.324h-.234v.324h-.217v.212h.217v.487c0 .247.096.395.37.395.1 0 .217-.032.29-.083l-.067-.198a.427.427 0 0 1-.205.06c-.116 0-.154-.072-.154-.179zm1.403-.21a.494.494 0 0 0-.165-.03.315.315 0 0 0-.282.157v-.13h-.23v1.067h.232v-.598c0-.177.076-.275.228-.275a.38.38 0 0 1 .145.027zm-3.995.437c.025-.154.119-.26.284-.26.15 0 .245.095.27.26zm.288-.467c.3 0 .505.228.507.56 0 .032-.002.06-.004.09h-.793c.034.192.17.26.32.26.106 0 .22-.04.31-.11l.113.171a.649.649 0 0 1-.437.15c-.32 0-.547-.221-.547-.56 0-.333.219-.56.531-.56m1.527.3a.684.684 0 0 0-.332-.092c-.127 0-.203.047-.203.125 0 .071.08.091.18.105l.11.015c.232.034.372.132.372.32 0 .203-.178.348-.486.348a.77.77 0 0 1-.462-.139l.109-.18a.57.57 0 0 0 .355.111c.159 0 .243-.047.243-.13 0-.06-.06-.093-.187-.11l-.11-.016c-.238-.034-.368-.141-.368-.315 0-.212.174-.342.444-.342.17 0 .324.038.436.112zm2.73-.054a.352.352 0 0 1 .133-.025c.048 0 .092.008.133.025a.32.32 0 0 1 .178.179.366.366 0 0 1 .026.14c0 .05-.009.096-.026.138a.323.323 0 0 1-.311.205.347.347 0 0 1-.133-.025.318.318 0 0 1-.177-.18.366.366 0 0 1-.025-.139c0-.05.008-.097.025-.14a.32.32 0 0 1 .177-.18m-5.577-.027c-.201 0-.324.154-.324.342 0 .187.123.34.324.34.192 0 .321-.146.321-.34 0-.195-.13-.342-.321-.342m.54-.192h-.232v.13a.405.405 0 0 0-.337-.157c-.3 0-.534.235-.534.56 0 .326.235.56.534.56.152 0 .263-.06.337-.155v.13h.232zm-1.308.397v.67H9.58v-.594c0-.18-.076-.281-.235-.281-.154 0-.261.098-.261.284v.591H8.85v-.594c0-.18-.078-.281-.233-.281-.158 0-.26.098-.26.284v.591h-.235V15.99h.232v.132a.353.353 0 0 1 .313-.159.39.39 0 0 1 .352.19.413.413 0 0 1 .375-.19c.26.003.42.172.42.424" clip-rule="evenodd"/></svg>