<svg xmlns="http://www.w3.org/2000/svg" fill="none" viewBox="0 0 24 24"><path fill="#fff" d="M1 6a1 1 0 0 1 1-1h20a1 1 0 0 1 1 1v12a1 1 0 0 1-1 1H2a1 1 0 0 1-1-1z"/><path fill="#C8C8CA" fill-rule="evenodd" d="M22 5.5H2a.5.5 0 0 0-.5.5v12a.5.5 0 0 0 .5.5h20a.5.5 0 0 0 .5-.5V6a.5.5 0 0 0-.5-.5M2 5a1 1 0 0 0-1 1v12a1 1 0 0 0 1 1h20a1 1 0 0 0 1-1V6a1 1 0 0 0-1-1z" clip-rule="evenodd"/><path fill="#FF040C" fill-rule="evenodd" d="M10.146 11.961a4.83 4.83 0 0 1 1.836-3.783 4.996 4.996 0 0 0-3.126-1.09c-2.74 0-4.961 2.182-4.961 4.873 0 2.69 2.221 4.872 4.961 4.872a4.996 4.996 0 0 0 3.126-1.09 4.83 4.83 0 0 1-1.836-3.782" clip-rule="evenodd"/><path fill="#FFA200" fill-rule="evenodd" d="M15.108 7.089a4.996 4.996 0 0 0-3.126 1.089 4.83 4.83 0 0 1 1.836 3.783c0 1.527-.716 2.89-1.836 3.783.853.68 1.94 1.09 3.126 1.09 2.74 0 4.96-2.182 4.96-4.873 0-2.691-2.22-4.872-4.96-4.872" clip-rule="evenodd"/><path fill="#FF6100" fill-rule="evenodd" d="M13.818 11.961a4.83 4.83 0 0 0-1.836-3.783 4.83 4.83 0 0 0-1.836 3.783c0 1.527.716 2.89 1.836 3.783a4.829 4.829 0 0 0 1.836-3.783" clip-rule="evenodd"/></svg>