<svg xmlns="http://www.w3.org/2000/svg" width="50" height="50" viewBox="0 0 32 32"><rect id="Delivery/ic_mondial_relay" x="-16" y="-16" rx="0" ry="0" width="32" height="32" transform="matrix(1.33 0 0 1.33 16 16)" style="fill: none; fill-rule: nonzero; opacity: 1; stroke: none; stroke-dasharray: none; stroke-dashoffset: 0; stroke-linecap: butt; stroke-linejoin: miter; stroke-miterlimit: 4; stroke-width: 1;"/><path id="Mondial_relay" transform="matrix(1.33 0 0 1.33 -5.28 -5.28)" d="M24.5 5.4c-2.8-.4-5.6-.7-8.5-.7-2.9 0-5.7.3-8.5.7C6.1 5.8 5.1 7 5 8.5v15c.1 1.5 1.1 2.7 2.5 3.1 2.8.4 5.7.7 8.5.7 2.9-.1 5.7-.3 8.5-.7 1.4-.4 2.4-1.6 2.5-3.1v-15c-.1-1.5-1.1-2.7-2.5-3.1z" style="fill: rgb(150, 21, 74); fill-rule: nonzero; opacity: 1; stroke: none; stroke-dasharray: none; stroke-dashoffset: 0; stroke-linecap: butt; stroke-linejoin: miter; stroke-miterlimit: 4; stroke-width: 1;"/><path transform="matrix(1.33 0 0 1.33 -5.28 -5.28)" d="M11.6 17.9v5.7l3-1.9v-3.8c0-1.6 1.3-2.6 3.1-2.3v-2.8c-3.8-.4-6.1 1.8-6.1 5.1zm3.4-6.3c.9 0 1.7-.8 1.7-1.7 0-.9-.8-1.7-1.7-1.7-.9 0-1.7.8-1.7 1.7 0 1 .8 1.7 1.7 1.7z" style="fill: rgb(255, 255, 255); fill-rule: nonzero; opacity: 1; stroke: none; stroke-dasharray: none; stroke-dashoffset: 0; stroke-linecap: butt; stroke-linejoin: miter; stroke-miterlimit: 4; stroke-width: 1;"/><path transform="matrix(1.33 0 0 1.33 -5.28 -5.28)" d="M18.4 15.4c0 .2.2.4.4.4.4.1.8.1 1.2.1.4 0 .8 0 1.2-.1.2-.1.3-.2.4-.4v-2.2c0-.2-.2-.4-.4-.4-.4-.1-.8-.1-1.2-.1-.4 0-.8 0-1.2.1-.2.1-.4.2-.4.4v2.2z" style="fill: rgb(246, 171, 182); fill-rule: nonzero; opacity: 1; stroke: none; stroke-dasharray: none; stroke-dashoffset: 0; stroke-linecap: butt; stroke-linejoin: miter; stroke-miterlimit: 4; stroke-width: 1;"/></svg>