<svg xmlns="http://www.w3.org/2000/svg" width="50" height="50" viewBox="0 0 24 24"><title>PayPal</title><defs><polygon points=".711 .747 2 .747 2 4.205 .711 4.205"/><polygon points=".037 .899 2.918 .899 2.918 4 .037 4"/></defs><g fill="none" fill-rule="evenodd"><rect width="24" height="24"/><g transform="translate(2.5 6)"><rect width="18.5" height="11.5" x="0.25" y="0.25" fill="#FFF" fill-rule="nonzero" stroke="#C8C8CA" stroke-width="0.5" rx="1"/><g transform="translate(1.5 3)"><g transform="translate(14 .253)"><mask fill="#fff"><use xmlns:xlink="http://www.w3.org/1999/xlink" xlink:href="#paypal-a"/></mask><path fill="#139BE0" d="M1.9293,0.7473 C1.9933,0.7813 2.0083,0.8333 1.9963,0.9043 C1.9193,1.3763 1.8453,1.8483 1.7713,2.3193 C1.7033,2.7513 1.6363,3.1823 1.5683,3.6133 C1.5453,3.7613 1.5223,3.9073 1.4973,4.0553 C1.4833,4.1433 1.4163,4.2033 1.3263,4.2043 C1.1573,4.2063 0.9883,4.2053 0.8183,4.2043 C0.7493,4.2043 0.7033,4.1553 0.7123,4.0873 C0.7263,3.9733 0.7453,3.8583 0.7643,3.7443 C0.8053,3.4793 0.8473,3.2163 0.8893,2.9513 C0.9303,2.6863 0.9723,2.4233 1.0143,2.1583 C1.0613,1.8603 1.1073,1.5613 1.1543,1.2633 C1.1753,1.1243 1.1983,0.9843 1.2193,0.8453 C1.2263,0.7973 1.2563,0.7683 1.2973,0.7473 L1.9293,0.7473 Z" mask="url(#paypal-b)"/></g><g transform="translate(6 1.253)"><mask fill="#fff"><use xmlns:xlink="http://www.w3.org/1999/xlink" xlink:href="#paypal-c"/></mask><path fill="#243986" d="M1.2457,2.1907 C1.3577,2.0267 1.4647,1.8687 1.5717,1.7117 C1.7337,1.4717 1.8967,1.2327 2.0587,0.9937 C2.1017,0.9287 2.1577,0.8977 2.2357,0.89867657 C2.4227,0.9007 2.6097,0.8997 2.7967,0.89867657 C2.8447,0.89867657 2.8837,0.9117 2.9067,0.9557 C2.9287,0.9987 2.9167,1.0377 2.8907,1.0757 C2.2317,2.0247 1.5737,2.9747 0.9157,3.9237 C0.8807,3.9747 0.8377,4.0017 0.7717,4.00072681 C0.5667,3.9967 0.3607,3.9987 0.1557,3.9987 C0.0847,3.9987 0.0427,3.9317 0.0717,3.8657 C0.0787,3.8497 0.0897,3.8367 0.0997,3.8217 C0.2927,3.5497 0.4847,3.2777 0.6787,3.0057 C0.6967,2.9807 0.6997,2.9607 0.6887,2.9297 C0.4757,2.3077 0.2647,1.6857 0.0527,1.0637 C0.0447,1.0427 0.0357,1.0217 0.0367,0.9987 C0.0397,0.9417 0.0827,0.8997 0.1417,0.8997 C0.3387,0.89867657 0.5347,0.89867657 0.7297,0.8997 C0.8127,0.9007 0.8727,0.9487 0.8987,1.0337 C0.9497,1.2027 1.0007,1.3727 1.0517,1.5427 C1.1157,1.7557 1.1797,1.9697 1.2457,2.1907" mask="url(#paypal-d)"/></g><path fill="#139BE0" d="M10.9234,2.25082 C10.8714,2.45182 10.7374,2.56082 10.5364,2.59382 C10.4364,2.60982 10.3344,2.60982 10.2344,2.61082 C10.1754,2.61082 10.1154,2.60782 10.0574,2.61082 C10.0194,2.61382 10.0154,2.60182 10.0214,2.56682 C10.0584,2.34082 10.0934,2.11282 10.1294,1.88582 C10.1354,1.84882 10.1404,1.81282 10.1484,1.77482 C10.1584,1.72482 10.1944,1.69082 10.2454,1.69082 C10.3904,1.68882 10.5354,1.68482 10.6794,1.71282 C10.8604,1.74682 10.9484,1.85482 10.9504,2.03782 C10.9514,2.10982 10.9424,2.18182 10.9234,2.25082 M11.8754,1.72982 C11.8554,1.50182 11.7484,1.31382 11.5534,1.18582 C11.3724,1.06582 11.1694,1.02282 10.9584,1.00682 C10.9414,1.00182 10.9214,1.00582 10.9034,1.00382 C10.8794,1.00182 10.8544,1.00882 10.8294,0.99982 L9.5174,0.99982 C9.4454,1.02482 9.3944,1.06882 9.3814,1.14682 C9.3414,1.40082 9.3014,1.65482 9.2614,1.90882 L9.1354,2.70582 C9.0974,2.94682 9.0594,3.18882 9.0214,3.43182 C8.9744,3.72882 8.9274,4.02582 8.8804,4.32282 C8.8674,4.39882 8.9104,4.45682 8.9884,4.45682 C9.1964,4.45882 9.4044,4.45782 9.6124,4.45682 C9.6814,4.45682 9.7284,4.41582 9.7394,4.35182 C9.7544,4.26482 9.7674,4.17782 9.7804,4.09082 C9.8154,3.87682 9.8484,3.66182 9.8834,3.44782 C9.8994,3.35682 9.9644,3.30582 10.0584,3.30482 L10.3584,3.30482 C10.5364,3.30582 10.7154,3.29782 10.8904,3.25782 C11.2004,3.18682 11.4584,3.03482 11.6314,2.76182 C11.8304,2.44682 11.9084,2.09982 11.8754,1.72982"/><path fill="#243986" d="M2.0113,2.34262 C1.9433,2.49462 1.8163,2.56562 1.6583,2.59262 C1.5573,2.61162 1.4543,2.61162 1.3523,2.61162 C1.2893,2.61162 1.2263,2.61062 1.1633,2.61162 C1.1423,2.61262 1.1343,2.60862 1.1383,2.58262 C1.1813,2.31862 1.2223,2.05462 1.2643,1.78962 C1.2733,1.73262 1.3063,1.69362 1.3593,1.69262 C1.5163,1.68862 1.6733,1.68162 1.8273,1.71962 C1.9903,1.76062 2.0693,1.86362 2.0713,2.03162 C2.0733,2.13962 2.0553,2.24362 2.0113,2.34262 M2.9963,1.73862 C2.9813,1.54262 2.9023,1.37262 2.7493,1.24262 C2.6003,1.11462 2.4203,1.05662 2.2303,1.02362 C2.1823,1.01562 2.1333,1.01962 2.0873,0.99962 L2.0313,0.99962 C2.0153,1.00862 1.9973,1.00162 1.9823,1.00362 C1.9603,1.00162 1.9393,1.00862 1.9183,0.99962 L0.6383,0.99962 C0.5463,1.03062 0.5063,1.09562 0.4933,1.18962 C0.4723,1.35062 0.4453,1.51062 0.4193,1.67062 C0.3493,2.11962 0.2783,2.56862 0.2063,3.01762 C0.1383,3.44862 0.0713,3.88062 0.0033,4.31262 C-0.0117,4.40762 0.0293,4.45662 0.1263,4.45662 C0.2923,4.45662 0.4593,4.45262 0.6263,4.45862 C0.7823,4.46262 0.8563,4.41662 0.8793,4.23762 C0.9143,3.97762 0.9593,3.71862 1.0003,3.45862 C1.0173,3.35862 1.0823,3.30462 1.1873,3.30462 L1.5553,3.30462 C1.7083,3.30362 1.8623,3.29162 2.0113,3.25762 C2.3243,3.18562 2.5843,3.03062 2.7573,2.75462 C2.9503,2.44462 3.0273,2.10162 2.9963,1.73862"/><path fill="#139BE0" d="M13.694,3.25962 C13.671,3.49462 13.561,3.68062 13.351,3.79562 C13.19,3.88462 13.017,3.90462 12.84,3.85662 C12.642,3.80362 12.523,3.65162 12.512,3.44662 C12.494,3.10662 12.718,2.81262 13.05,2.74062 C13.096,2.73162 13.142,2.72662 13.175,2.72862 C13.32,2.72762 13.441,2.75662 13.542,2.84462 C13.668,2.95462 13.71,3.09962 13.694,3.25962 M14.504,2.15262 L13.943,2.15262 C13.862,2.15262 13.827,2.18462 13.816,2.26462 C13.81,2.30762 13.802,2.35062 13.796,2.39362 C13.779,2.38762 13.774,2.37562 13.767,2.36562 C13.709,2.27562 13.627,2.21362 13.527,2.17562 C13.296,2.08562 13.056,2.07362 12.815,2.11762 C12.488,2.17662 12.219,2.34162 12.017,2.60462 C11.74,2.96762 11.631,3.37562 11.744,3.82662 C11.81,4.09162 11.961,4.30162 12.215,4.41562 C12.487,4.53862 12.77,4.54162 13.054,4.45362 C13.225,4.40162 13.377,4.30962 13.514,4.17362 C13.507,4.22762 13.501,4.27162 13.493,4.31462 C13.477,4.40562 13.52,4.45662 13.615,4.45662 L14.111,4.45662 C14.218,4.45662 14.286,4.39962 14.303,4.29162 C14.343,4.03862 14.383,3.78462 14.423,3.53062 C14.489,3.11662 14.553,2.70162 14.619,2.28762 C14.632,2.20162 14.59,2.15262 14.504,2.15262"/><path fill="#243986" d="M4.7926,3.38072 C4.6836,3.78472 4.2926,3.94672 3.9526,3.85572 C3.7646,3.80472 3.6476,3.65372 3.6336,3.45572 C3.6126,3.17672 3.7676,2.90972 4.0186,2.79072 C4.1116,2.74672 4.2096,2.72672 4.3136,2.72872 C4.5386,2.72872 4.7056,2.82772 4.7786,3.00772 C4.8286,3.13072 4.8266,3.25472 4.7926,3.38072 M5.6296,2.15172 C5.4386,2.15172 5.2486,2.15172 5.0576,2.15172 C4.9836,2.15172 4.9476,2.18472 4.9376,2.25772 C4.9306,2.30372 4.9236,2.34972 4.9156,2.39672 C4.8996,2.38972 4.8966,2.37772 4.8896,2.36872 C4.8306,2.27772 4.7496,2.21672 4.6506,2.17572 C4.5436,2.13172 4.4316,2.11072 4.3166,2.10172 C4.0336,2.07572 3.7676,2.12572 3.5206,2.27072 C3.0346,2.55572 2.7576,3.12372 2.8326,3.68772 C2.8586,3.88572 2.9356,4.06572 3.0676,4.21672 C3.2196,4.39072 3.4156,4.47572 3.6416,4.50072 C4.0116,4.54372 4.3376,4.44872 4.6136,4.19272 C4.6186,4.18972 4.6216,4.17872 4.6336,4.18472 C4.6266,4.22672 4.6206,4.26872 4.6126,4.31072 C4.5966,4.40472 4.6386,4.45672 4.7346,4.45672 L5.2156,4.45672 C5.3476,4.45672 5.4056,4.40272 5.4256,4.27272 C5.4746,3.95772 5.5246,3.64372 5.5746,3.32872 C5.6296,2.97972 5.6856,2.62872 5.7396,2.27872 C5.7516,2.20172 5.7076,2.15172 5.6296,2.15172"/></g></g></g></svg>