<svg xmlns="http://www.w3.org/2000/svg" width="50" height="50" viewBox="0 0 24 24"><defs><radialGradient cx="26.6114286%" cy="37.5358255%" fx="26.6114286%" fy="37.5358255%" r="70.8665903%" gradientTransform="translate(0.266114,0.375358),scale(0.990654,1.000000),translate(-0.266114,-0.375358)" id="radialGradient-1"><stop stop-color="#FFC429" offset="0%"/><stop stop-color="#F26F23" offset="100%"/></radialGradient></defs><g id="Delivery/ic_PostNL" stroke="none" stroke-width="1" fill="none" fill-rule="evenodd"><rect x="0" y="0" width="24" height="24"/><g id="postnl" transform="translate(2.000000, 3.000000)" fill-rule="nonzero"><path d="M4.81158249,0.0202020202 C7.04188552,0.0202020202 10.6351515,1.43123543 13.0141414,2.74324895 C15.6409428,4.20379231 19.3333333,7.14963399 19.3333333,9.17954171 C19.3333333,11.3332243 15.5418182,14.204801 13.0141414,15.6158345 C10.7094949,16.878338 7.19057239,18.3636364 4.88592593,18.3636364 C4.26639731,18.3636364 3.77077441,18.2646165 3.39905724,18.0665767 C1.59003367,17.0516228 0.747474747,12.7442577 0.747474747,9.17954171 C0.747474747,7.37242874 0.970505051,5.46629589 1.39178451,3.88197767 C1.88740741,2.00059979 2.58127946,0.762851184 3.39905724,0.292506714 C3.74599327,0.119221909 4.21683502,0.0202020202 4.81158249,0.0202020202" id="Path" fill="#A6ACB2"/><path d="M18.6868687,9.29601155 C18.6868687,7.75859954 15.7964791,5.05573003 12.708456,3.34473924 C9.12634921,1.38577878 5.07486291,0.245118251 3.74083694,0.964230321 C2.23388167,1.80732723 1.39393939,6.02281178 1.39393939,9.29601155 C1.39393939,12.5940083 2.1844733,16.7598989 3.74083694,17.6277928 C5.17367965,18.4212958 9.05223665,17.2558383 12.6837518,15.2224869 C15.8458874,13.5114961 18.6868687,10.9326114 18.6868687,9.29601155" id="Path" fill="url(#radialGradient-1)"/><path d="M14.6164961,10.8236208 L14.5918791,9.25718726 C14.5918791,8.90909091 14.4687939,8.75990676 14.1980066,8.75990676 C14.0995384,8.75990676 13.9764533,8.78477078 13.8779851,8.85936286 C13.7549,8.93395493 13.6810489,8.98368298 13.6318148,9.00854701 L13.6071978,9.03341103 L13.6071978,10.7987568 C13.6071978,10.7987568 13.6071978,10.8236208 13.5825808,10.8236208 L12.8933039,10.8236208 C12.8933039,10.8236208 12.8686869,10.8236208 12.8686869,10.7987568 L12.8686869,8.31235431 C12.8686869,8.26262626 12.8933039,8.23776224 12.942538,8.23776224 L13.5579637,8.23776224 C13.5579637,8.23776224 13.5825808,8.23776224 13.5825808,8.26262626 L13.5825808,8.46153846 C13.5825808,8.46153846 13.5825808,8.48640249 13.6071978,8.48640249 L13.6318148,8.48640249 L13.6564319,8.46153846 C13.730283,8.41181041 13.8533681,8.33721834 13.9272192,8.31235431 C14.0995384,8.23776224 14.2718576,8.21289821 14.4195598,8.21289821 C14.9857516,8.21289821 15.2811559,8.53613054 15.2811559,9.15773116 L15.2811559,10.8236208 C15.2811559,10.8236208 15.2811559,10.8484848 15.2565389,10.8484848 L14.6164961,10.8236208 M15.8965817,10.8236208 C15.8719647,10.8236208 15.8719647,10.8236208 15.8965817,10.8236208 L15.8719647,6.99456099 C15.8719647,6.96969697 15.8719647,6.96969697 15.8965817,6.96969697 C15.9458158,6.96969697 16.3150712,7.21833722 16.4381564,7.34265734 C16.5366245,7.44211344 16.5858586,7.59129759 16.5858586,7.71561772 L16.5858586,10.7738928 C16.5858586,10.7738928 16.5858586,10.7987568 16.5612416,10.7987568 L15.8965817,10.7987568" id="Shape" fill="#FFFFFF"/><path d="M8.27298627,9.55206115 C8.27298627,10.4732733 7.68122248,10.8965329 6.94151774,10.8965329 C6.201813,10.8965329 5.61004921,10.4732733 5.61004921,9.55206115 C5.61004921,8.63084903 6.201813,8.20758941 6.94151774,8.20758941 C7.68122248,8.20758941 8.27298627,8.63084903 8.27298627,9.55206115 M7.53328153,9.55206115 C7.53328153,9.05410865 7.28671329,8.85492765 6.96617457,8.85492765 C6.64563585,8.85492765 6.3990676,9.07900628 6.3990676,9.55206115 C6.3990676,10.0002184 6.64563585,10.2491946 6.96617457,10.2491946 C7.28671329,10.2740923 7.53328153,10.025116 7.53328153,9.55206115 Z M11.7495985,7.56025116 C11.7495985,7.53535354 11.7495985,7.53535354 11.7249417,7.53535354 C11.6756281,7.53535354 11.2811189,7.78432978 11.1824916,7.90881791 C11.0838643,8.00840841 11.0345506,8.15779416 11.0345506,8.28228228 L11.0345506,9.95042315 C11.0345506,10.6724543 11.4537167,10.8965329 11.8975395,10.8965329 C12.1441077,10.8965329 12.3167055,10.8716353 12.4153328,10.7969424 C12.4399896,10.7969424 12.4646465,10.7720448 12.4646465,10.7222495 L12.4646465,10.2491946 C12.4646465,10.224297 12.4646465,10.224297 12.4399896,10.224297 C12.4153328,10.224297 12.242735,10.2989899 12.1441077,10.2989899 C11.9221963,10.2989899 11.7742554,10.1993994 11.7742554,9.82593503 L11.7742554,8.87982528 C11.7742554,8.85492765 11.7742554,8.85492765 11.7989122,8.85492765 L12.4153328,8.85492765 C12.4399896,8.85492765 12.4399896,8.85492765 12.4399896,8.83003003 L12.4399896,8.33207753 C12.4399896,8.28228228 12.4153328,8.25738466 12.3660192,8.25738466 L11.7989122,8.25738466 C11.7742554,8.25738466 11.7742554,8.25738466 11.7742554,8.23248703 L11.7495985,7.56025116 M2.84848485,8.35697516 C2.84848485,8.30717991 2.8977985,8.28228228 2.92245532,8.28228228 L3.88407148,8.28228228 C4.84568765,8.28228228 5.33882414,8.85492765 5.33882414,9.6018564 C5.33882414,10.3487851 4.796374,10.8716353 3.88407148,10.8716353 L3.58818959,10.8716353 C3.56353276,10.8716353 3.56353276,10.8716353 3.56353276,10.8965329 L3.56353276,12.1165165 C3.56353276,12.1414141 3.56353276,12.1414141 3.53887594,12.1414141 C3.48956229,12.1414141 3.0950531,11.8924379 2.9964258,11.7679498 C2.8977985,11.6683593 2.84848485,11.5189735 2.84848485,11.3944854 L2.84848485,8.35697516 M4.62377622,9.55206115 C4.62377622,9.22839203 4.42652163,8.92962053 3.88407148,8.92962053 L3.58818959,8.92962053 C3.56353276,8.92962053 3.56353276,8.92962053 3.56353276,8.95451815 L3.56353276,10.1496041 C3.56353276,10.1745018 3.56353276,10.1745018 3.58818959,10.1745018 L3.88407148,10.1745018 C4.52514893,10.1745018 4.62377622,9.72634453 4.62377622,9.55206115 Z M10.3441595,9.45247065 C10.1962186,9.35288015 9.998964,9.3030849 9.82636623,9.27818728 C9.8017094,9.27818728 9.67842528,9.25328965 9.65376845,9.22839203 C9.43185703,9.17859678 9.25925926,9.12880153 9.25925926,9.0043134 C9.25925926,8.87982528 9.38254338,8.80513241 9.55514116,8.80513241 C9.77705258,8.80513241 10.0975913,8.85492765 10.4427868,8.97941578 C10.4674437,8.97941578 10.4921005,8.97941578 10.4921005,8.95451815 L10.4921005,8.45656566 C10.4921005,8.43166803 10.4674437,8.38187278 10.4427868,8.38187278 C10.3195027,8.33207753 9.94965035,8.23248703 9.65376845,8.23248703 C9.30857291,8.23248703 9.03734784,8.30717991 8.84009324,8.45656566 C8.64283864,8.60595141 8.54421134,8.80513241 8.54421134,9.05410865 C8.54421134,9.62675403 9.01269101,9.72634453 9.45651386,9.82593503 C9.53048433,9.85083265 9.50582751,9.85083265 9.53048433,9.85083265 C9.72773893,9.9006279 9.94965035,9.95042315 9.94965035,10.0998089 C9.94965035,10.1496041 9.92499352,10.1993994 9.9003367,10.224297 C9.85102305,10.2740923 9.75239575,10.2989899 9.6044548,10.2989899 C9.33322973,10.2989899 8.79077959,10.1745018 8.64283864,10.1247065 C8.61818182,10.1247065 8.61818182,10.1496041 8.61818182,10.1496041 L8.61818182,10.6475566 C8.61818182,10.6724543 8.64283864,10.7222495 8.66749547,10.7222495 C8.66749547,10.7222495 9.13597514,10.8716353 9.55514116,10.8716353 C10.3195027,10.8716353 10.7140119,10.5728638 10.7140119,10.025116 C10.6400414,9.77613978 10.5414141,9.57695878 10.3441595,9.45247065" id="Shape" fill="#383792"/><path d="M5.82211834,7.61616162 C5.77291058,7.61616162 5.72370282,7.5916199 5.72370282,7.51799476 L5.72370282,7.2234942 C5.72370282,7.14986906 5.77291058,7.10078563 5.84672222,7.10078563 L8.03646752,7.10078563 C8.11027916,7.10078563 8.15948692,7.14986906 8.15948692,7.2234942 L8.15948692,7.49345305 C8.15948692,7.56707819 8.13488304,7.5916199 8.0610714,7.5916199 L5.82211834,7.5916199 M7.79042872,6.83082679 C7.76582484,6.83082679 7.74122096,6.83082679 7.74122096,6.80628507 L7.74122096,6.75720165 C7.8150326,6.53632623 8.0610714,5.84915825 8.0610714,5.84915825 C8.08567528,5.80007482 8.0610714,5.7509914 8.01186364,5.72644968 L7.88884424,5.67736626 L7.86424036,5.67736626 C7.83963648,5.67736626 7.8150326,5.67736626 7.8150326,5.70190797 C7.76582484,5.82461654 7.74122096,5.89824168 7.6920132,6.02095024 C7.6920132,6.04549196 7.66740932,6.04549196 7.64280545,6.04549196 L7.39676665,6.04549196 C7.37216277,6.04549196 7.37216277,6.04549196 7.34755889,6.02095024 L7.34755889,5.97186682 C7.42137053,5.7509914 7.47057829,5.5791994 7.56899381,5.38286569 C7.59359769,5.35832398 7.61820157,5.28469884 7.71661708,5.28469884 L7.76582484,5.28469884 C7.83963648,5.30924055 7.938052,5.33378227 8.03646752,5.35832398 C8.11027916,5.38286569 8.1840908,5.40740741 8.28250632,5.43194912 C8.52854512,5.53011597 8.52854512,5.70190797 8.47933736,5.87369996 C8.45473348,5.97186682 8.3071102,6.38907594 8.20869468,6.63449308 C8.1840908,6.68357651 8.1840908,6.73265993 8.15948692,6.75720165 C8.15948692,6.78174336 8.13488304,6.80628507 8.08567528,6.80628507 L7.79042872,6.80628507 L7.79042872,6.83082679 Z M6.78166965,6.83082679 C6.73246189,6.83082679 6.73246189,6.78174336 6.73246189,6.75720165 C6.73246189,6.73265993 6.70785801,5.45649083 6.70785801,5.28469884 C6.70785801,5.26015713 6.70785801,5.23561541 6.73246189,5.23561541 C6.73246189,5.23561541 6.75706577,5.2110737 6.78166965,5.2110737 L7.12612397,5.2110737 C7.15072785,5.2110737 7.15072785,5.2110737 7.17533173,5.23561541 C7.19993561,5.26015713 7.19993561,5.28469884 7.19993561,5.28469884 C7.19993561,5.45649083 7.17533173,6.73265993 7.17533173,6.75720165 C7.17533173,6.75720165 7.17533173,6.83082679 7.12612397,6.83082679 L6.78166965,6.83082679 Z M5.77291058,6.83082679 C5.72370282,6.83082679 5.72370282,6.80628507 5.69909894,6.78174336 C5.69909894,6.75720165 5.67449506,6.70811822 5.64989118,6.65903479 C5.55147566,6.41361766 5.42845626,6.02095024 5.3792485,5.89824168 C5.33004074,5.72644968 5.33004074,5.53011597 5.57607954,5.45649083 C5.64989118,5.43194912 5.7483067,5.40740741 5.82211834,5.38286569 C5.92053386,5.35832398 6.01894937,5.33378227 6.09276101,5.30924055 L6.14196877,5.30924055 C6.21578041,5.30924055 6.26498817,5.35832398 6.28959205,5.40740741 C6.38800757,5.60374111 6.43721533,5.77553311 6.51102697,5.99640853 L6.51102697,6.04549196 C6.51102697,6.04549196 6.48642309,6.07003367 6.46181921,6.07003367 L6.21578041,6.07003367 C6.19117653,6.07003367 6.16657265,6.07003367 6.16657265,6.04549196 C6.11736489,5.92278339 6.09276101,5.82461654 6.04355325,5.72644968 C6.04355325,5.72644968 6.01894937,5.70190797 5.99434549,5.70190797 L5.96974162,5.70190797 L5.84672222,5.7509914 C5.79751446,5.77553311 5.77291058,5.82461654 5.79751446,5.87369996 C5.79751446,5.87369996 6.04355325,6.56086794 6.11736489,6.78174336 L6.11736489,6.83082679 C6.11736489,6.83082679 6.09276101,6.8553685 6.06815713,6.8553685 C6.06815713,6.83082679 5.77291058,6.83082679 5.77291058,6.83082679 L5.77291058,6.83082679 Z M6.92929293,4.96565657 C6.90468905,4.96565657 6.90468905,4.96565657 6.88008517,4.94111485 C6.78166965,4.86748971 6.68325413,4.76932286 6.60944249,4.671156 C6.60944249,4.671156 6.58483861,4.64661429 6.60944249,4.59753086 C6.68325413,4.4748223 6.80627353,4.40119716 6.90468905,4.3030303 L6.95389681,4.3030303 C7.05231233,4.37665544 7.15072785,4.4748223 7.24914337,4.59753086 C7.27374725,4.62207258 7.27374725,4.64661429 7.24914337,4.671156 C7.17533173,4.76932286 7.07691621,4.86748971 6.97850069,4.94111485 C6.95389681,4.96565657 6.95389681,4.96565657 6.92929293,4.96565657 L6.92929293,4.96565657 Z" id="Shape" fill="#FFFFFF"/></g></g></svg>