<svg xmlns="http://www.w3.org/2000/svg" fill="none" viewBox="0 0 24 24"><path fill="#fff" d="M1 6a1 1 0 0 1 1-1h20a1 1 0 0 1 1 1v12a1 1 0 0 1-1 1H2a1 1 0 0 1-1-1z"/><path fill="#C8C8CA" fill-rule="evenodd" d="M22 5.583H2A.417.417 0 0 0 1.583 6v12c0 .23.187.417.417.417h20c.23 0 .417-.187.417-.417V6A.417.417 0 0 0 22 5.583M2 5a1 1 0 0 0-1 1v12a1 1 0 0 0 1 1h20a1 1 0 0 0 1-1V6a1 1 0 0 0-1-1z" clip-rule="evenodd"/><path fill="#0056A5" fill-rule="evenodd" d="M15.522 9.265c-.23-.082-1.129-.234-1.813-.164-.602.062-1.15.293-1.57.76-.497.553-.619 1.49.137 2.079.248.192.518.344.8.478.208.1.42.196.593.355.229.207.215.487-.032.67a.895.895 0 0 1-.21.108c-.362.136-.734.09-1.104.042a2.632 2.632 0 0 1-.85-.274c-.125-.065-.162-.032-.177.096a8.773 8.773 0 0 1-.09.572c-.105.581-.106.58.478.688.01.002.972.174 1.802.068.578-.075 1.104-.293 1.503-.745.523-.593.653-1.648-.228-2.252a4.492 4.492 0 0 0-.555-.323c-.258-.129-.527-.238-.748-.428-.23-.196-.212-.44.039-.607.164-.108.35-.15.545-.16a2.87 2.87 0 0 1 1.374.27c.063-.376.121-.74.187-1.103.015-.081-.007-.105-.081-.13m2.954 3.365a60.277 60.277 0 0 0-1.033 0c-.124.002-.089-.058-.062-.125l.746-1.945c.153.688.293 1.33.436 1.97.017.078-.014.1-.087.1m1.855 1.42c-.118-.538-.239-1.077-.359-1.616-.237-1.068-.453-2.139-.702-3.203-.048-.204-.08-.227-.291-.23-.3-.002-.6 0-.9 0-.535 0-.733.138-.948.633a983.5 983.5 0 0 1-1.103 2.515c-.326.746-.65 1.492-.977 2.235-.094.211-.068.25.162.252.395.003.79-.003 1.187.003.159.002.255-.056.302-.211.049-.16.12-.309.178-.463.039-.104.108-.149.22-.149.508.001 1.016.002 1.525-.001.116 0 .179.043.198.16.023.147.057.29.092.435.048.195.079.224.277.226.339.004.678.002 1.017 0 .069 0 .137.003.192-.047v-.036c-.039-.164-.034-.336-.07-.502M5.752 12.052c.064.281.128.562.191.846.044 0 .04-.041.052-.07.452-1.165.905-2.327 1.352-3.492.05-.13.113-.176.254-.174.418.01.836.006 1.254.002.106 0 .154 0 .098.135-.756 1.761-1.506 3.525-2.255 5.29-.036.083-.076.122-.173.12a39.549 39.549 0 0 0-1.339.003c-.112.001-.144-.048-.17-.139-.317-1.155-.638-2.308-.957-3.461-.112-.405-.22-.81-.33-1.216.047-.022.086.001.125.023.748.434 1.348 1.016 1.762 1.786.059.11.097.23.136.347m3.674 2.66c-.186 0-.374-.014-.56.003-.174.018-.187-.057-.161-.197.084-.476.162-.952.243-1.428l.468-2.755c.059-.346.118-.694.172-1.041.014-.094.047-.136.15-.135.413.007.825.007 1.237 0 .12 0 .137.035.117.146-.142.817-.277 1.635-.415 2.453-.159.935-.32 1.87-.472 2.805-.02.129-.071.156-.186.15-.197-.007-.396-.001-.593-.001" clip-rule="evenodd"/><path fill="#FFA100" fill-rule="evenodd" d="M5.753 12.052c-.25-.509-.552-.979-.962-1.372a4.774 4.774 0 0 0-1.062-.784 5.645 5.645 0 0 0-1.375-.561 3.422 3.422 0 0 1-.146-.042c-.036-.012-.054-.035-.05-.077.007-.046.04-.05.075-.052h.05c.774 0 1.549-.004 2.322.002.41.003.599.178.683.585.148.722.3 1.445.45 2.166.01.044.01.09.015.135" clip-rule="evenodd"/></svg>