<svg xmlns="http://www.w3.org/2000/svg" fill="none" viewBox="0 0 24 24"><path fill="url(#paint0_radial_14772_97057)" d="M12 1c-2.986 0-3.361.013-4.535.066-1.17.054-1.97.24-2.67.511a5.386 5.386 0 0 0-1.948 1.269 5.4 5.4 0 0 0-1.27 1.948c-.272.7-.458 1.5-.51 2.67C1.013 8.637 1 9.013 1 12c0 2.987.013 3.361.066 4.535.054 1.17.24 1.97.511 2.67a5.39 5.39 0 0 0 1.27 1.948 5.386 5.386 0 0 0 1.947 1.27c.7.272 1.5.457 2.67.51C8.638 22.987 9.012 23 12 23c2.988 0 3.362-.013 4.535-.067 1.171-.053 1.972-.238 2.672-.51a5.383 5.383 0 0 0 1.947-1.27 5.4 5.4 0 0 0 1.27-1.948c.27-.7.455-1.5.51-2.67C22.986 15.36 23 14.987 23 12s-.014-3.362-.067-4.536c-.055-1.17-.24-1.97-.51-2.67a5.399 5.399 0 0 0-1.27-1.948 5.377 5.377 0 0 0-1.948-1.269c-.701-.272-1.501-.457-2.672-.51C15.359 1.012 14.986 1 11.997 1zm-.986 1.982h.987c2.937 0 3.285.01 4.445.064 1.072.049 1.654.228 2.042.378.514.2.88.438 1.264.823.385.385.624.752.823 1.265.151.387.33.97.38 2.042.052 1.16.063 1.508.063 4.444 0 2.935-.011 3.283-.064 4.443-.049 1.073-.228 1.655-.379 2.042a3.4 3.4 0 0 1-.823 1.264c-.385.384-.75.623-1.264.822-.387.152-.97.33-2.042.38-1.16.052-1.508.063-4.445.063-2.937 0-3.285-.011-4.445-.064-1.072-.05-1.655-.228-2.043-.379-.513-.2-.88-.438-1.265-.823a3.41 3.41 0 0 1-.823-1.264c-.15-.387-.33-.97-.379-2.042-.052-1.16-.063-1.508-.063-4.445 0-2.938.01-3.284.063-4.444.05-1.072.229-1.654.38-2.042.199-.513.437-.88.822-1.265a3.414 3.414 0 0 1 1.265-.823c.388-.152.97-.33 2.043-.38 1.015-.045 1.408-.06 3.458-.061zm6.859 1.827a1.32 1.32 0 1 0 0 2.64 1.32 1.32 0 0 0 0-2.64M12 6.35a5.65 5.65 0 1 0 0 11.298A5.65 5.65 0 0 0 12 6.35m0 1.982a3.667 3.667 0 1 1 0 7.334 3.667 3.667 0 0 1 0-7.334"/><path fill="url(#paint1_radial_14772_97057)" d="M12 1c-2.986 0-3.361.013-4.535.066-1.17.054-1.97.24-2.67.511a5.386 5.386 0 0 0-1.948 1.269 5.4 5.4 0 0 0-1.27 1.948c-.272.7-.458 1.5-.51 2.67C1.013 8.637 1 9.013 1 12c0 2.987.013 3.361.066 4.535.054 1.17.24 1.97.511 2.67a5.39 5.39 0 0 0 1.27 1.948 5.386 5.386 0 0 0 1.947 1.27c.7.272 1.5.457 2.67.51C8.638 22.987 9.012 23 12 23c2.988 0 3.362-.013 4.535-.067 1.171-.053 1.972-.238 2.672-.51a5.383 5.383 0 0 0 1.947-1.27 5.4 5.4 0 0 0 1.27-1.948c.27-.7.455-1.5.51-2.67C22.986 15.36 23 14.987 23 12s-.014-3.362-.067-4.536c-.055-1.17-.24-1.97-.51-2.67a5.399 5.399 0 0 0-1.27-1.948 5.377 5.377 0 0 0-1.948-1.269c-.701-.272-1.501-.457-2.672-.51C15.359 1.012 14.986 1 11.997 1zm-.986 1.982h.987c2.937 0 3.285.01 4.445.064 1.072.049 1.654.228 2.042.378.514.2.88.438 1.264.823.385.385.624.752.823 1.265.151.387.33.97.38 2.042.052 1.16.063 1.508.063 4.444 0 2.935-.011 3.283-.064 4.443-.049 1.073-.228 1.655-.379 2.042a3.4 3.4 0 0 1-.823 1.264c-.385.384-.75.623-1.264.822-.387.152-.97.33-2.042.38-1.16.052-1.508.063-4.445.063-2.937 0-3.285-.011-4.445-.064-1.072-.05-1.655-.228-2.043-.379-.513-.2-.88-.438-1.265-.823a3.41 3.41 0 0 1-.823-1.264c-.15-.387-.33-.97-.379-2.042-.052-1.16-.063-1.508-.063-4.445 0-2.938.01-3.284.063-4.444.05-1.072.229-1.654.38-2.042.199-.513.437-.88.822-1.265a3.414 3.414 0 0 1 1.265-.823c.388-.152.97-.33 2.043-.38 1.015-.045 1.408-.06 3.458-.061zm6.859 1.827a1.32 1.32 0 1 0 0 2.64 1.32 1.32 0 0 0 0-2.64M12 6.35a5.65 5.65 0 1 0 0 11.298A5.65 5.65 0 0 0 12 6.35m0 1.982a3.667 3.667 0 1 1 0 7.334 3.667 3.667 0 0 1 0-7.334"/><defs><radialGradient id="paint0_radial_14772_97057" cx="0" cy="0" r="1" gradientTransform="matrix(0 -21.8036 20.2789 0 6.844 24.695)" gradientUnits="userSpaceOnUse"><stop stop-color="#FD5"/><stop offset=".1" stop-color="#FD5"/><stop offset=".5" stop-color="#FF543E"/><stop offset="1" stop-color="#C837AB"/></radialGradient><radialGradient id="paint1_radial_14772_97057" cx="0" cy="0" r="1" gradientTransform="matrix(4.92711 16.1562 -16.1561 4.92708 1.688 -1.865)" gradientUnits="userSpaceOnUse"><stop stop-color="#3771C8"/><stop offset=".13" stop-color="#3771C8"/><stop offset="1" stop-color="#60F" stop-opacity="0"/></radialGradient></defs></svg>