<svg xmlns="http://www.w3.org/2000/svg" fill="none" viewBox="0 0 24 24"><path fill="#464650" fill-rule="evenodd" d="M18.82 5.115c1.199.067 1.788.245 2.33 1.21.565.964.85 2.624.85 5.548v.01c0 2.91-.285 4.582-.849 5.536-.542.965-1.131 1.14-2.33 1.221-1.199.069-4.21.11-6.819.11-2.613 0-5.626-.041-6.823-.111-1.197-.081-1.785-.256-2.333-1.221C2.288 16.464 2 14.79 2 11.88v-.01c0-2.922.288-4.582.846-5.546.548-.966 1.138-1.142 2.334-1.211C6.376 5.034 9.389 5 12.003 5c2.608 0 5.62.034 6.817.115m-3.07 6.76L9.5 8.125v7.5z" clip-rule="evenodd"/></svg>